<?xml version="1.0" encoding="UTF-8" standalone="no"?>
<svg
   id="Layer_1"
   data-name="Layer 1"
   viewBox="0 0 38 37.999999"
   version="1.1"
   sodipodi:docname="logo.svg"
   inkscape:version="1.1.1 (3bf5ae0d25, 2021-09-20)"
   width="38"
   height="38"
   xmlns:inkscape="http://www.inkscape.org/namespaces/inkscape"
   xmlns:sodipodi="http://sodipodi.sourceforge.net/DTD/sodipodi-0.dtd"
   xmlns="http://www.w3.org/2000/svg"
   xmlns:svg="http://www.w3.org/2000/svg">
  <sodipodi:namedview
     id="namedview16"
     pagecolor="#ffffff"
     bordercolor="#666666"
     borderopacity="1.0"
     inkscape:pageshadow="2"
     inkscape:pageopacity="0.0"
     inkscape:pagecheckerboard="true"
     showgrid="false"
     inkscape:zoom="11.313709"
     inkscape:cx="3.7565048"
     inkscape:cy="28.682019"
     inkscape:window-width="1920"
     inkscape:window-height="1017"
     inkscape:window-x="-8"
     inkscape:window-y="-8"
     inkscape:window-maximized="1"
     inkscape:current-layer="Layer_1"
     fit-margin-top="0"
     fit-margin-left="0"
     fit-margin-right="0"
     fit-margin-bottom="0" />
  <defs
     id="defs11">
    <style
       id="style2">.cls-1{fill:url(#linear-gradient);}</style>
    <linearGradient
       id="linear-gradient"
       x1="8.5500002"
       y1="-877.02002"
       x2="-413.45999"
       y2="-633.38"
       gradientTransform="matrix(0,-0.07291669,0.07291669,0,74.06742,9.2329035)"
       gradientUnits="userSpaceOnUse">
      <stop
         offset="0"
         stop-color="#29235c"
         id="stop4" />
      <stop
         offset="0.68"
         stop-color="#009086"
         id="stop6" />
      <stop
         offset="1"
         stop-color="#4cb48c"
         id="stop8" />
    </linearGradient>
  </defs>
  <rect
     style="fill:#ffffff;stroke-width:0.923867"
     id="rect848"
     width="24.350988"
     height="24.563662"
     x="6.7413211"
     y="11.831949" />
  <path
     class="cls-1"
     d="m 13.874686,16.520189 c -0.691247,-0.691247 -1.717182,-0.698535 -2.40625,-0.01969 -0.700727,0.697076 -0.716049,1.750005 -0.03283,2.427402 a 1.7128132,1.7128132 0 1 0 2.437607,-2.406268 z m 0.282184,12.871264 c -0.665724,-0.67376 -1.720833,-0.662085 -2.40625,0.02848 a 1.694584,1.694584 0 0 0 -0.02259,2.414277 c 0.656245,0.659893 1.784271,0.669374 2.432496,0.02482 0.689068,-0.686142 0.683226,-1.766046 -0.0039,-2.467496 z M 26.783133,16.305095 c -0.690527,-0.691262 -1.768964,-0.706569 -2.434689,-0.03059 -0.875003,0.886662 -0.583339,2.625008 0.890312,2.886041 a 1.7230217,1.7230217 0 0 0 1.594687,-0.528644 c 0.624891,-0.688332 0.611763,-1.661042 -0.0503,-2.326766 z m 0,0 c -0.690527,-0.691262 -1.768964,-0.706569 -2.434689,-0.03059 -0.875003,0.886662 -0.583339,2.625008 0.890312,2.886041 a 1.7230217,1.7230217 0 0 0 1.594687,-0.528644 c 0.624891,-0.688331 0.611763,-1.661041 -0.05027,-2.326765 z M 14.15687,29.391453 c -0.665724,-0.67376 -1.720833,-0.662085 -2.40625,0.02848 a 1.694584,1.694584 0 0 0 -0.02259,2.414277 c 0.656245,0.659893 1.784271,0.669374 2.432496,0.02482 0.689068,-0.686142 0.683226,-1.766046 -0.0039,-2.467496 z M 13.874686,16.520189 c -0.691247,-0.691247 -1.717182,-0.698535 -2.40625,-0.01969 -0.700727,0.697076 -0.716049,1.750005 -0.03283,2.427402 a 1.7128132,1.7128132 0 1 0 2.437602,-2.406264 z m 0,0 c -0.691247,-0.691247 -1.717182,-0.698535 -2.40625,-0.01969 -0.700727,0.697076 -0.716049,1.750005 -0.03283,2.427402 a 1.7128132,1.7128132 0 1 0 2.437607,-2.406268 z m 0.282184,12.871264 c -0.665724,-0.67376 -1.720833,-0.662085 -2.40625,0.02848 a 1.694584,1.694584 0 0 0 -0.02259,2.414277 c 0.656245,0.659893 1.784271,0.669374 2.432496,0.02482 0.689068,-0.686142 0.683226,-1.766046 -0.0039,-2.467496 z m 11.339279,-0.544685 a 1.7551047,1.7551047 0 1 0 1.757294,1.75583 1.7543756,1.7543756 0 0 0 -1.757294,-1.756566 z m 1.286984,-12.541673 c -0.690527,-0.691262 -1.768964,-0.706569 -2.434689,-0.03059 -0.875003,0.886662 -0.583339,2.625008 0.890312,2.886041 a 1.7230217,1.7230217 0 0 0 1.594687,-0.528644 c 0.624891,-0.688332 0.611763,-1.661042 -0.0503,-2.326766 z m 0,0 c -0.690527,-0.691262 -1.768964,-0.706569 -2.434689,-0.03059 -0.875003,0.886662 -0.583339,2.625008 0.890312,2.886041 a 1.7230217,1.7230217 0 0 0 1.594687,-0.528644 c 0.624891,-0.688331 0.611763,-1.661041 -0.05027,-2.326765 z M 11.75062,29.419156 a 1.694584,1.694584 0 0 0 -0.02259,2.414272 c 0.656245,0.659896 1.784271,0.669375 2.432496,0.02482 0.689068,-0.685405 0.685419,-1.765309 0,-2.467497 -0.669376,-0.673742 -1.723027,-0.662084 -2.409902,0.02848 z m 2.129173,-10.477395 a 1.7135422,1.7135422 0 0 0 -0.0052,-2.421572 c -0.691291,-0.691247 -1.717225,-0.698535 -2.406293,-0.01969 -0.700727,0.697076 -0.716048,1.750004 -0.03283,2.427401 a 1.7237508,1.7237508 0 0 0 2.444167,0.01392 z m 11.616356,9.904271 a 1.7551047,1.7551047 0 1 0 1.757294,1.755832 1.7543756,1.7543756 0 0 0 -1.757294,-1.755832 z M 29.276153,9.9912279 H 8.7238477 A 3.7275014,3.7275014 0 0 0 5,13.719462 V 34.270307 A 3.729689,3.729689 0 0 0 8.7267622,38 H 29.276153 A 3.729689,3.729689 0 0 0 33,34.270307 V 13.719462 A 3.7275014,3.7275014 0 0 0 29.276153,9.9912279 Z M 25.496149,34.335928 a 3.734793,3.734793 0 1 1 3.735522,-3.734064 3.7362518,3.7362518 0 0 1 -3.735522,3.734064 z m 1.717184,-13.458962 c -1.144055,0.621253 -2.315108,0.737919 -3.499997,0.108707 a 2.751147,2.751147 0 0 1 -0.910005,-0.768538 c -0.813742,-1.049265 -1.875413,-1.610731 -3.224376,-1.617296 -0.291665,0 -0.573124,0.0051 -0.859681,0.0189 a 4.4858353,4.4858353 0 0 0 -3.135415,1.463436 l -0.621256,0.677398 a 4.5288561,4.5288561 0 0 0 -1.187081,3.026048 v 0.01745 c -0.0039,0.514793 0.0039,1.027392 0.0078,1.544378 0.0091,0.75323 0.336865,1.345311 0.947908,1.76895 0.623449,0.431671 1.213339,0.886675 1.5699,1.585221 a 3.9017722,3.9017722 0 0 1 -0.476138,4.262704 C 14.849368,34.12007 13.582068,34.536417 12.128111,34.24184 10.674189,33.947251 9.6621057,33.08027 9.205646,31.636527 8.932206,30.775377 9.0525214,29.939026 9.4294975,29.135485 a 5.2995856,5.2995856 0 0 1 1.1170905,-1.580837 c 0.828328,-0.802081 1.190731,-1.804688 1.281873,-2.916669 A 4.8307312,4.8307312 0 0 0 11.436939,22.231731 C 11.193394,21.693608 10.836833,21.256108 10.397875,20.85215 9.470369,20.00267 8.7273533,19.015375 8.769642,17.673711 c 0.050284,-1.515938 0.7437509,-2.697926 2.110215,-3.393545 1.333642,-0.681045 2.641773,-0.532293 3.871144,0.308443 0.364581,0.253011 0.659894,0.603741 0.993125,0.901247 1.052914,0.941357 2.303435,1.214061 3.661881,1.155729 0.865521,-0.04017 1.677083,-0.230416 2.379269,-0.781669 0.298228,-0.232609 0.522813,-0.525006 0.754686,-0.81302 0.974166,-1.208231 2.253126,-1.604165 3.73187,-1.297194 1.628232,0.33323 2.70449,1.53126 2.923235,3.126671 0.220937,1.65084 -0.541773,3.211248 -1.981877,3.996566 z m -2.864889,-4.602501 c -0.875003,0.886661 -0.583339,2.625005 0.890312,2.88604 a 1.7230217,1.7230217 0 0 0 1.594687,-0.528645 c 0.627088,-0.691246 0.611763,-1.661041 -0.05027,-2.326765 -0.690527,-0.691262 -1.768963,-0.706569 -2.434689,-0.03059 z m 1.147705,12.571567 a 1.7551047,1.7551047 0 1 0 1.757294,1.755832 1.7543756,1.7543756 0 0 0 -1.757294,-1.755832 z M 11.75062,29.419156 a 1.694584,1.694584 0 0 0 -0.02259,2.414272 c 0.656245,0.659896 1.784271,0.669375 2.432496,0.02482 0.689068,-0.685405 0.685419,-1.765309 0,-2.467497 -0.669374,-0.673744 -1.723024,-0.662088 -2.4099,0.0285 z M 11.469893,16.500508 c -0.700727,0.697077 -0.716049,1.750004 -0.03283,2.427401 a 1.7128132,1.7128132 0 1 0 2.437603,-2.406263 c -0.691249,-0.692704 -1.717184,-0.699992 -2.404795,-0.02114 z m 14.026256,12.345524 a 1.7551047,1.7551047 0 1 0 1.757294,1.755832 1.7543756,1.7543756 0 0 0 -1.757294,-1.755832 z M 13.874686,16.523117 c -0.691247,-0.691261 -1.717182,-0.698548 -2.40625,-0.01969 -0.700727,0.697089 -0.716049,1.750004 -0.03283,2.427402 a 1.7128132,1.7128132 0 1 0 2.437602,-2.406253 z m 0.282184,12.868336 c -0.665724,-0.67376 -1.720833,-0.662085 -2.40625,0.02848 a 1.694584,1.694584 0 0 0 -0.02259,2.414277 c 0.656245,0.659893 1.784271,0.669374 2.432496,0.02482 0.689068,-0.686142 0.683226,-1.766046 -0.0039,-2.467496 z M 26.783133,16.305095 c -0.690527,-0.691262 -1.768964,-0.706569 -2.434689,-0.03059 -0.875003,0.886662 -0.583339,2.625008 0.890312,2.886041 a 1.7230217,1.7230217 0 0 0 1.594687,-0.528644 c 0.624891,-0.688332 0.611763,-1.661042 -0.0503,-2.326766 z m 0,0 c -0.690527,-0.691262 -1.768964,-0.706569 -2.434689,-0.03059 -0.875003,0.886662 -0.583339,2.625008 0.890312,2.886041 a 1.7230217,1.7230217 0 0 0 1.594687,-0.528644 c 0.624891,-0.688332 0.611763,-1.661042 -0.0503,-2.326766 z m -1.286984,12.541673 a 1.7551047,1.7551047 0 1 0 1.757294,1.75583 1.7543756,1.7543756 0 0 0 -1.757294,-1.756566 z M 14.15687,29.391453 c -0.665724,-0.67376 -1.720833,-0.662085 -2.40625,0.02848 a 1.694584,1.694584 0 0 0 -0.02259,2.414277 c 0.656245,0.659893 1.784271,0.669374 2.432496,0.02482 0.689068,-0.686142 0.683226,-1.766046 -0.0039,-2.467496 z M 13.874686,16.520189 c -0.691247,-0.691247 -1.717182,-0.698535 -2.40625,-0.01969 -0.700727,0.697076 -0.716049,1.750005 -0.03283,2.427402 a 1.7128132,1.7128132 0 1 0 2.437602,-2.406264 z"
     id="path13"
     style="fill:url(#linear-gradient);stroke-width:0.0729168" />
</svg>
