<svg xmlns="http://www.w3.org/2000/svg" width="38" height="38"><defs><linearGradient id="prefix__a" gradientUnits="userSpaceOnUse" x1="8.55" y1="-877.02" x2="-413.46" y2="-633.38" gradientTransform="matrix(0 -.095 .095 0 90.745 -.234)"><stop offset="0" stop-color="#29235c"/><stop offset=".68" stop-color="#009086"/><stop offset="1" stop-color="#4cb48c"/></linearGradient></defs><path d="M12.324 9.262c-.902-.903-2.238-.91-3.136-.028-.915.91-.934 2.282-.043 3.164a2.23 2.23 0 002.164.618c.78-.2 1.394-.801 1.605-1.582a2.24 2.24 0 00-.594-2.172zm.367 16.77c-.867-.88-2.242-.864-3.136.034-.426.41-.668.977-.672 1.567a2.19 2.19 0 00.644 1.578c.852.86 2.325.875 3.168.035.899-.894.89-2.3-.004-3.215zM29.141 8.98c-.899-.902-2.305-.921-3.172-.039-1.14 1.153-.762 3.418 1.16 3.758a2.242 2.242 0 002.078-.687c.813-.899.797-2.164-.066-3.032zm0 0c-.899-.902-2.305-.921-3.172-.039-1.14 1.153-.762 3.418 1.16 3.758a2.242 2.242 0 002.078-.687c.813-.899.797-2.164-.066-3.032zM12.69 26.031c-.867-.879-2.242-.863-3.136.035-.426.41-.668.977-.672 1.567a2.19 2.19 0 00.644 1.578c.852.86 2.325.875 3.168.035.899-.894.89-2.3-.004-3.215zm-.367-16.77c-.902-.902-2.238-.91-3.136-.027-.915.91-.934 2.282-.043 3.164a2.23 2.23 0 002.164.618c.78-.2 1.394-.801 1.605-1.582a2.24 2.24 0 00-.594-2.172zm0 0c-.902-.902-2.238-.91-3.136-.027-.915.91-.934 2.282-.043 3.164a2.23 2.23 0 002.164.618c.78-.2 1.394-.801 1.605-1.582a2.24 2.24 0 00-.594-2.172zm.367 16.77c-.867-.879-2.242-.863-3.136.035-.426.41-.668.977-.672 1.567a2.19 2.19 0 00.644 1.578c.852.86 2.325.875 3.168.035.899-.894.89-2.3-.004-3.215zm14.774-.71a2.286 2.286 0 000 4.574 2.286 2.286 0 100-4.575zM29.14 8.98c-.899-.903-2.305-.922-3.172-.04-1.14 1.153-.762 3.418 1.16 3.758a2.242 2.242 0 002.078-.687c.813-.899.797-2.164-.066-3.032zm0 0c-.899-.903-2.305-.922-3.172-.04-1.14 1.153-.762 3.418 1.16 3.758a2.242 2.242 0 002.078-.687c.813-.899.797-2.164-.066-3.032zM9.555 26.065c-.426.41-.668.977-.672 1.567-.008.59.226 1.16.644 1.578.852.86 2.325.871 3.168.031.899-.89.89-2.297 0-3.215-.87-.875-2.246-.859-3.14.04zm2.773-13.652a2.228 2.228 0 00-.004-3.152c-.902-.903-2.238-.91-3.136-.028-.915.91-.934 2.282-.043 3.164.418.426.992.668 1.59.672.597 0 1.171-.234 1.593-.656zM27.465 25.32a2.284 2.284 0 00-2.285 2.29 2.286 2.286 0 002.285 2.285 2.29 2.29 0 002.289-2.29 2.289 2.289 0 00-2.29-2.285zM32.387.754H5.613a4.853 4.853 0 00-4.851 4.86v26.773a4.859 4.859 0 004.855 4.86h26.77a4.858 4.858 0 004.851-4.86V5.613a4.853 4.853 0 00-4.851-4.86zm-4.922 31.719a4.868 4.868 0 010-9.735 4.87 4.87 0 014.867 4.867 4.87 4.87 0 01-4.867 4.868zm2.234-17.535c-1.488.808-3.015.96-4.558.14a3.567 3.567 0 01-1.184-1c-1.062-1.367-2.445-2.098-4.203-2.11-.379 0-.746.009-1.121.028a5.837 5.837 0 00-4.082 1.906l-.813.883a5.913 5.913 0 00-1.547 3.942v.023c-.004.668.008 1.336.012 2.012.012.98.442 1.754 1.235 2.304.812.563 1.582 1.157 2.046 2.067a5.076 5.076 0 01-.62 5.55c-1.27 1.508-2.923 2.051-4.817 1.665-1.895-.383-3.211-1.512-3.809-3.395-.355-1.121-.199-2.21.293-3.258a6.875 6.875 0 011.457-2.058c1.078-1.043 1.551-2.352 1.668-3.801a6.296 6.296 0 00-.508-3.133c-.32-.703-.785-1.273-1.355-1.797-1.207-1.11-2.176-2.394-2.121-4.144.066-1.973.969-3.512 2.75-4.418 1.738-.89 3.441-.696 5.043.398.473.332.86.79 1.293 1.176 1.37 1.227 3 1.582 4.77 1.508 1.128-.055 2.187-.301 3.1-1.02.388-.304.68-.683.985-1.058 1.27-1.575 2.934-2.09 4.86-1.692 2.12.434 3.523 1.996 3.808 4.074.29 2.149-.703 4.184-2.582 5.207zM25.97 8.94c-1.14 1.153-.762 3.418 1.16 3.758a2.242 2.242 0 002.078-.687c.816-.903.797-2.164-.066-3.032-.899-.902-2.305-.921-3.172-.039zm1.496 16.38a2.284 2.284 0 00-2.285 2.288 2.286 2.286 0 002.285 2.286 2.29 2.29 0 002.289-2.29 2.289 2.289 0 00-2.29-2.285zm-17.91.745c-.426.41-.668.977-.672 1.567-.008.59.226 1.16.644 1.578.852.86 2.325.871 3.168.031.899-.89.89-2.297 0-3.215-.87-.875-2.246-.859-3.14.04zM9.188 9.234c-.91.91-.93 2.282-.04 3.164a2.228 2.228 0 002.165.618c.78-.2 1.39-.801 1.601-1.582a2.23 2.23 0 00-.59-2.172c-.902-.903-2.238-.91-3.136-.028zM27.465 25.32a2.284 2.284 0 00-2.285 2.29 2.286 2.286 0 002.285 2.285 2.29 2.29 0 002.289-2.29 2.289 2.289 0 00-2.29-2.285zM12.325 9.266c-.903-.903-2.24-.91-3.137-.028-.915.91-.934 2.282-.043 3.164a2.23 2.23 0 002.164.618c.78-.2 1.394-.801 1.605-1.582a2.24 2.24 0 00-.594-2.172zm.366 16.765c-.867-.879-2.242-.863-3.136.035-.426.41-.668.977-.672 1.567a2.19 2.19 0 00.644 1.578c.852.86 2.325.875 3.168.035.899-.894.89-2.3-.004-3.215zm16.45-17.05c-.899-.903-2.305-.922-3.172-.04-1.14 1.153-.762 3.418 1.16 3.758a2.242 2.242 0 002.078-.687c.813-.899.797-2.164-.066-3.032zm0 0c-.899-.903-2.305-.922-3.172-.04-1.14 1.153-.762 3.418 1.16 3.758a2.242 2.242 0 002.078-.687c.813-.899.797-2.164-.066-3.032zm-1.676 16.34a2.286 2.286 0 000 4.574 2.286 2.286 0 100-4.575zm-14.774.71c-.867-.879-2.242-.863-3.136.035-.426.41-.668.977-.672 1.567a2.19 2.19 0 00.644 1.578c.852.86 2.325.875 3.168.035.899-.894.89-2.3-.004-3.215zm-.367-16.77c-.902-.902-2.238-.91-3.136-.027-.915.91-.934 2.282-.043 3.164a2.23 2.23 0 002.164.618c.78-.2 1.394-.801 1.605-1.582a2.24 2.24 0 00-.594-2.172zm0 0" fill="url(#prefix__a)"/></svg>