<svg xmlns="http://www.w3.org/2000/svg" width="933.333" height="933.333" version="1.0" viewBox="0 0 700 700"><path d="M113.6 13.7c-.1.1-4.5.3-9.8.4-21.5.4-39.1 6.3-54.8 18.4-15.1 11.6-27 29.2-31.5 46.6-.9 3.5-2 7.3-2.3 8.4-.4 1.1-.8 118.1-.9 260-.3 273.6-.4 263.6 4.2 277 9.2 27.2 32.5 50 58.5 57.4 2.5.8 5.9 1.8 7.5 2.5 3.8 1.4 518.2 2 526 .6 7.6-1.4 8.4-1.6 16.1-4.3 29.8-10.4 51.6-36.2 58-68.2 2-10.5 2-514.5-.1-525.2-3.7-19.2-11.2-33.1-25.5-47.3-10.7-10.7-19.9-16.5-33.3-21.1-11.3-3.9-17.6-4.7-37.1-4.9-28.7-.2-474.8-.5-475-.3zm407.7 89.9c45.4 8.6 74 42.8 74 88.9.1 25.4-8.6 47.3-25.8 65.1-25.6 26.5-63.5 36.7-94.2 25.4-15.3-5.7-25.4-12.9-35.3-25.3-17.1-21.2-37.2-32.7-64-36.4-8.5-1.2-39.2-.4-47 1.2-1.4.3-3.8.8-5.5 1.1-15.5 2.8-37.4 14.8-50.5 27.6-27.8 27.2-40 45.9-45.4 69.8-2.6 11.4-2.9 16-2.9 42 .1 28.6.9 34 6.8 44.5 4.1 7.3 8.8 12 22.2 21.9 25.1 18.5 35.8 34.6 40.4 60.6 1.1 6.4 1.4 24.2.4 29-1.3 6.9-1.9 9-3.7 15-7.9 25.2-29 48.3-53 57.9-4 1.7-8.4 3.2-9.8 3.5-1.4.2-4.7.9-7.5 1.5-2.7.6-10.8.9-18 .6-46.2-1.4-79.9-28.5-89.4-72-6.1-27.9 5.6-59.7 33-89 14-15 20.3-24.9 25.2-39.5 12.2-36.1 8.1-75.1-10.7-102.8-2.7-4.1-11.1-13.5-18.6-21-28.1-28.2-37.3-46.4-37.4-73.7 0-23.9 9.2-47.8 24.2-63.2 26.1-26.7 63.3-36.3 95.2-24.5 14.8 5.4 25.3 12.4 40 26.5 23.1 22.2 41.1 31 71 34.6 7.4.9 30 .7 37.5-.4 22-3 41.7-12.8 53.6-26.7 2.5-2.9 7.3-8.5 10.7-12.4 3.3-3.9 8.4-9.2 11.4-11.7 10.9-9.3 27.2-17 38.8-18.4 2.5-.3 4.7-.7 5-1 1-.9 22.5 0 29.3 1.3zm7.2 318.3c4.4 1.2 10.9 3.6 14.5 5.3 3.6 1.7 6.7 3.2 7 3.2.3.1 3.5 2.2 7.1 4.8 15.9 11.3 26.8 25.7 33.3 43.6 3.8 10.7 5 18.1 4.9 30.9-.3 41.8-30.5 78.2-71.8 86.9-7 1.4-26.7 1.4-34.3-.1-18.8-3.7-38.5-14.9-50.2-28.3-7.9-9.1-17.8-27-19.4-35.2-.2-1.4-1-4.8-1.6-7.5-2-8.5-1.9-24.2.2-34.5 7.3-35.9 34-62.5 70.9-70.5 9.4-2 29.3-1.3 39.4 1.4z"/><path d="M492.8 155.4c-10.4 4.2-16.8 10.2-21.8 20.2-2.8 5.8-5 15.7-4.4 20.8 1.6 15.5 8.9 27.2 20.6 33.2 25.2 12.9 55.2-1 60.8-28.2 3.5-16.9-6.1-36-22.1-43.6-9.1-4.3-10.3-4.6-19-4.6-6.6 0-9.8.5-14.1 2.2zM186.4 159.9c-26.3 8.8-38 39.3-23.6 61.4 14.7 22.5 45.5 26.3 64 7.8 16.4-16.4 16.4-41.8 0-58.3-5-5.1-13.2-10.1-18.8-11.4-5.7-1.4-16.6-1.1-21.6.5zM198.7 468.2c-10.5 1.9-23.2 10.4-28.7 19.3-9.5 15.4-7.7 36.3 4.4 49.3 4.3 4.7 10.2 8.6 16.6 11 8 2.9 22.2 2.5 30.4-.8 8.2-3.4 16.7-11.8 20.8-20.7 2.9-5.9 3.3-8 3.5-15.8.1-6.8-.3-10.3-1.8-14.5-6.9-19.4-26.2-31.3-45.2-27.8zM497.3 467.5c-15.7 3.4-27.8 14.9-31.8 30.1-4.8 18.5 2.9 37.5 19 47 29.5 17.2 65.9-5.6 63.2-39.6-2-24.9-26-42.8-50.4-37.5z"/></svg>