<?xml version="1.0" encoding="UTF-8" standalone="no"?>
<!DOCTYPE svg PUBLIC "-//W3C//DTD SVG 1.1//EN" "http://www.w3.org/Graphics/SVG/1.1/DTD/svg11.dtd">
<svg width="100%" height="100%" viewBox="0 0 7087 3544" version="1.1" xmlns="http://www.w3.org/2000/svg" xmlns:xlink="http://www.w3.org/1999/xlink" xml:space="preserve" xmlns:serif="http://www.serif.com/" style="fill-rule:evenodd;clip-rule:evenodd;stroke-linejoin:round;stroke-miterlimit:2;">
    <g transform="matrix(4.16667,0,0,4.16667,2304.17,1065.73)">
        <path d="M1056.56,399.853C1054.95,408.134 1046.93,414.849 1038.65,414.849L829.166,414.849C820.885,414.849 815.475,408.134 817.084,399.853L857.803,190.372C859.414,182.09 867.434,175.375 875.715,175.375L1085.19,175.375C1093.48,175.375 1098.89,182.09 1097.28,190.372L1056.56,399.853Z" style="fill:rgb(237,28,36);"/>
    </g>
    <g transform="matrix(4.16667,0,0,4.16667,2304.17,-975.724)">
        <path d="M682.562,432.716C740.168,432.716 771.334,437.257 758.514,499.541L595.857,499.541C485.767,499.731 437.702,527.297 419.026,613.533C404.7,683.146 439.517,729.188 514.87,729.188L814.594,729.188L863.332,492.361C882.531,399.069 840.039,350.985 736.695,350.985L144.877,350.985C60.305,351.563 4.38,381.159 -13.632,469.398C-32.035,559.551 24.796,574.629 95.631,574.629L213.073,574.629C248.956,574.629 264.681,587.092 259.216,613.647C253.751,640.199 235.716,652.813 199.833,652.813L-248.799,652.813C-322.627,652.813 -355.619,624.869 -341.304,541.882C-323.285,454.327 -275.563,432.716 -206.588,432.716L-27.4,432.716L-6.987,351.563L-208.005,351.563C-351.585,351.563 -424.719,407.187 -447.364,541.882C-468.319,666.682 -404.074,729.188 -285.839,729.188L231.604,729.027C291.173,729.027 349.954,682.481 359.978,611.433C368.325,536.979 327.562,499.731 244.313,499.731L131.106,499.731C98.81,499.731 87.123,488.059 90.684,464.372C97.18,432.799 121.454,432.716 166.667,432.716L682.562,432.716M571.43,653.117C534.837,653.117 517.776,648.811 524.274,617.235C531.218,583.506 554.334,574.893 594.705,574.893L743.723,574.893L727.625,653.117L571.43,653.117Z" style="fill:rgb(35,31,32);"/>
    </g>
    <g transform="matrix(4.16667,0,0,4.16667,2304.17,1685.1)">
        <path d="M734.326,237.638C706.447,237.638 695.748,228.526 702.24,194.077C705.779,175.285 712.018,163.327 724.008,155.643C731.713,150.801 739.912,150.801 750.691,150.801L767.559,150.801L751.193,237.638L734.326,237.638M779.164,263.261L806.418,118.628L747.146,118.628C726.766,118.628 711.777,122.331 697.436,136.281C683.434,149.663 672.723,170.445 668.27,194.077C663.764,217.993 666.643,238.776 675.598,252.157C686.363,268.386 700.131,268.669 718.873,268.669L745.346,268.669L744.855,271.28C742.279,284.944 734.037,292.634 721.385,292.634L663.053,292.634L657.311,323.097L721.27,323.097C753.832,323.097 771.537,303.735 779.164,263.261M550.123,118.628L521.85,268.669L555.045,269.147L576.465,151.655L602.703,151.655C621.209,151.655 623.129,157.633 619.211,178.418L602.205,268.669L634.768,268.669L652.689,173.578C660.199,133.72 648.049,118.628 611.502,118.628L550.123,118.628M494.416,269.147L522.012,118.628L487.807,118.628L459.533,268.669L494.416,269.147M377.699,118.628L349.426,268.669L381.988,268.669L404.842,147.385L416.322,147.385C426.865,147.385 430.346,148.807 427.824,162.189L424.176,181.55L455.334,181.55L460.055,156.496C465.313,128.595 458.287,118.628 432.518,118.628L377.699,118.628M281.016,268.669L328.574,268.669L334.475,237.353L291.135,237.353C270.051,237.353 262.207,234.22 266.172,209.45L339.734,209.45L345.635,178.132L272.074,178.132C277.283,154.217 286.99,149.947 307.84,149.947L350.947,149.947L356.848,118.628L309.291,118.628C268.293,118.628 242.272,144.822 233.044,193.794C223.763,243.046 240.019,268.669 281.016,268.669M157.556,268.669L205.113,268.669L211.015,237.353L167.675,237.353C146.589,237.353 138.745,234.22 142.71,209.45L216.272,209.45L222.174,178.132L148.611,178.132C153.821,154.217 163.528,149.947 184.378,149.947L227.485,149.947L233.388,118.628L185.829,118.628C144.832,118.628 118.811,144.822 109.583,193.794C100.302,243.046 116.558,268.669 157.556,268.669M-10.349,118.479L-38.384,269.147L-5.499,268.669L16.551,151.655L42.791,151.655C61.297,151.655 63.217,157.633 59.3,178.418L42.293,268.669L74.856,268.669L92.774,173.578C100.286,133.72 88.12,118.717 51.59,118.628L-10.349,118.479M-66.175,268.669L-37.901,118.628L-72.816,118.479L-100.38,268.669L-66.175,268.669M-171.374,237.638C-199.251,237.638 -209.951,228.526 -203.459,194.077C-199.919,175.285 -193.683,163.327 -181.692,155.643C-173.986,150.801 -165.787,150.801 -155.011,150.801L-138.142,150.801L-154.506,237.638L-171.374,237.638M-126.536,263.261L-99.281,118.628L-158.552,118.628C-178.934,118.628 -193.923,122.331 -208.265,136.281C-222.266,149.663 -232.977,170.445 -237.43,194.077C-241.937,217.993 -239.059,238.776 -230.101,252.157C-219.337,268.386 -205.568,268.669 -186.827,268.669L-160.354,268.669L-160.846,271.28C-163.42,284.944 -171.663,292.634 -184.314,292.634L-242.648,292.634L-248.389,323.097L-184.431,323.097C-151.868,323.097 -134.163,303.735 -126.536,263.261M-355.577,118.628L-383.85,268.669L-351.287,268.669L-329.237,151.655L-302.998,151.655C-284.49,151.655 -282.571,157.633 -286.487,178.418L-303.495,268.669L-270.931,268.669L-253.012,173.578C-245.501,133.72 -257.65,118.628 -294.197,118.628L-355.577,118.628M-452.258,268.669L-404.7,268.669L-398.799,237.353L-442.14,237.353C-463.225,237.353 -471.068,234.22 -467.103,209.45L-393.542,209.45L-387.639,178.132L-461.202,178.132C-455.993,154.217 -446.285,149.947 -425.435,149.947L-382.328,149.947L-376.426,118.628L-423.984,118.628C-464.981,118.628 -491.003,144.822 -500.231,193.794C-509.513,243.046 -493.255,268.669 -452.258,268.669Z" style="fill:rgb(0,101,164);"/>
    </g>
</svg>
