<?xml version="1.0" encoding="UTF-8" standalone="no"?>
<!-- Created with Inkscape (http://www.inkscape.org/) -->

<svg
   xmlns:dc="http://purl.org/dc/elements/1.1/"
   xmlns:cc="http://creativecommons.org/ns#"
   xmlns:rdf="http://www.w3.org/1999/02/22-rdf-syntax-ns#"
   xmlns:svg="http://www.w3.org/2000/svg"
   xmlns="http://www.w3.org/2000/svg"
   xmlns:sodipodi="http://sodipodi.sourceforge.net/DTD/sodipodi-0.dtd"
   xmlns:inkscape="http://www.inkscape.org/namespaces/inkscape"
   width="220"
   height="150"
   viewBox="0 0 220 150"
   id="svg5633"
   version="1.1"
   inkscape:version="0.91 r13725"
   sodipodi:docname="eclo-solutions-logo-alto.svg">
  <defs
     id="defs5635" />
  <sodipodi:namedview
     id="base"
     pagecolor="#ffffff"
     bordercolor="#666666"
     borderopacity="1.0"
     inkscape:pageopacity="0.0"
     inkscape:pageshadow="2"
     inkscape:zoom="1.4"
     inkscape:cx="63.781705"
     inkscape:cy="194.42022"
     inkscape:document-units="px"
     inkscape:current-layer="layer1"
     showgrid="false"
     inkscape:window-width="1440"
     inkscape:window-height="837"
     inkscape:window-x="1912"
     inkscape:window-y="53"
     inkscape:window-maximized="1"
     units="px" />
  <metadata
     id="metadata5638">
    <rdf:RDF>
      <cc:Work
         rdf:about="">
        <dc:format>image/svg+xml</dc:format>
        <dc:type
           rdf:resource="http://purl.org/dc/dcmitype/StillImage" />
        <dc:title></dc:title>
      </cc:Work>
    </rdf:RDF>
  </metadata>
  <g
     inkscape:label="Layer 1"
     inkscape:groupmode="layer"
     id="layer1"
     transform="translate(0,-902.36213)">
    <g
       id="g4164"
       transform="translate(-218.85714,811.14286)">
      <g
         transform="matrix(1.25,0,0,-1.25,293.45461,144.10391)"
         id="g5053">
        <path
           inkscape:connector-curvature="0"
           id="path5055"
           style="fill:#fabd14;fill-opacity:1;fill-rule:nonzero;stroke:none"
           d="M 0,0 0,-19.435 C 0,-27 6.155,-33.156 13.719,-33.156 l 17.778,0 0,10.367 -17.778,0 c -1.697,0 -3.024,1.328 -3.024,3.028 l 0,20.086 c 0,1.716 1.355,3.112 3.024,3.112 l 17.778,0 0,10.289 -17.778,0 C 6.155,13.726 0,7.566 0,0" />
      </g>
      <path
         inkscape:connector-curvature="0"
         id="path5057"
         style="fill:#fabd14;fill-opacity:1;fill-rule:nonzero;stroke:none"
         d="m 348.49574,185.54879 13.3725,0 0,-81.09125 -13.3725,0 0,81.09125 z" />
      <g
         transform="matrix(1.25,0,0,-1.25,387.68374,142.88454)"
         id="g5059">
        <path
           inkscape:connector-curvature="0"
           id="path5061"
           style="fill:#fabd14;fill-opacity:1;fill-rule:nonzero;stroke:none"
           d="m 0,0 c 0,1.677 1.36,3.037 3.027,3.037 l 10.786,0 c 1.689,0 3.113,-1.388 3.113,-3.037 l 0,-21.309 c 0,-1.714 -1.4,-3.108 -3.113,-3.108 l -10.786,0 C 1.328,-24.417 0,-23.051 0,-21.309 L 0,0 Z m 13.813,13.402 -10.786,0 c -7.568,0 -13.72,-6.157 -13.72,-13.725 l 0,-20.657 c 0,-7.566 6.152,-13.722 13.72,-13.722 l 10.786,0 c 7.608,0 13.806,6.156 13.806,13.722 l 0,20.657 c 0,7.568 -6.198,13.725 -13.806,13.725" />
      </g>
      <g
         transform="matrix(1.25,0,0,-1.25,234.93524,154.28342)"
         id="g5063">
        <path
           inkscape:connector-curvature="0"
           id="path5065"
           style="fill:#fabd14;fill-opacity:1;fill-rule:nonzero;stroke:none"
           d="m 0,0 10.69,5.076 0,1.041 L 0,1.048 0,0 Z" />
      </g>
      <g
         transform="matrix(1.25,0,0,-1.25,234.93524,151.13954)"
         id="g5067">
        <path
           inkscape:connector-curvature="0"
           id="path5069"
           style="fill:#fabd14;fill-opacity:1;fill-rule:nonzero;stroke:none"
           d="m 0,0 10.69,5.074 0,1.041 L 0,1.046 0,0 Z" />
      </g>
      <g
         transform="matrix(1.25,0,0,-1.25,282.92661,163.19091)"
         id="g5071">
        <path
           inkscape:connector-curvature="0"
           id="path5073"
           style="fill:#fabd14;fill-opacity:1;fill-rule:nonzero;stroke:none"
           d="m 0,0 0,15.683 c 0,8.007 -5.513,13.393 -13.725,13.393 l -10.949,0 c -8.208,0 -13.719,-5.386 -13.719,-13.393 l 0,-2.995 12.198,5.789 c 0.429,0.188 0.913,0.312 1.521,0.312 l 11.194,0 c 2.204,0 2.947,-0.764 2.947,-3.026 l 0,-5.472 -17.17,0 0,-0.019 -10.69,-5.074 0,-9.363 c 0,-7.565 6.152,-13.722 13.719,-13.722 l 24.674,0 0,10.368 -24.674,0 c -1.696,0 -3.029,1.327 -3.029,3.027 L -27.703,0 0,0 Z" />
      </g>
      <g
         transform="matrix(1.25,0,0,-1.25,248.06024,215.30879)"
         id="g5075">
        <path
           inkscape:connector-curvature="0"
           id="path5077"
           style="fill:#96a0a5;fill-opacity:1;fill-rule:nonzero;stroke:none"
           d="m 0,0 -2.372,1.309 c -2.188,1.22 -3.229,2.027 -3.229,3.33 0,1.872 0.972,2.568 3.594,2.568 1.676,0 3.426,-0.211 4.474,-0.337 L 2.864,6.819 c 0.13,-0.013 0.241,-0.025 0.334,-0.025 0.578,0 0.87,0.338 0.87,0.998 l 0,0.281 c 0,0.85 -0.683,0.948 -1.101,1.007 L 2.719,9.111 c -1.156,0.135 -2.465,0.29 -4.865,0.29 -3.705,0 -5.825,-1.734 -5.825,-4.762 0,-2.714 1.946,-3.997 4.496,-5.389 l 2.264,-1.239 c 3.032,-1.659 3.545,-2.332 3.545,-3.504 0,-2.226 -1.184,-3.136 -4.092,-3.136 -1.168,0 -2.943,0.195 -5.141,0.563 -0.733,0.117 -1.252,-0.267 -1.252,-0.901 l 0,-0.389 c 0,-0.728 0.609,-0.859 1.109,-0.965 1.272,-0.248 3.57,-0.502 5.212,-0.502 4.277,0 6.535,1.842 6.535,5.33 C 4.705,-2.818 2.753,-1.528 0,0" />
      </g>
      <g
         transform="matrix(1.25,0,0,-1.25,276.92499,214.64779)"
         id="g5079">
        <path
           inkscape:connector-curvature="0"
           id="path5081"
           style="fill:#96a0a5;fill-opacity:1;fill-rule:nonzero;stroke:none"
           d="m 0,0 0,-2.482 c 0,-4.494 -1.741,-6.676 -5.331,-6.676 -3.586,0 -5.331,2.182 -5.331,6.676 l 0,2.482 c 0,4.494 1.745,6.678 5.331,6.678 C -1.741,6.678 0,4.494 0,0 m -5.331,8.873 c -4.972,0 -7.708,-3.151 -7.708,-8.873 l 0,-2.482 c 0,-5.722 2.736,-8.87 7.708,-8.87 4.967,0 7.706,3.148 7.706,8.87 l 0,2.482 c 0,5.722 -2.739,8.873 -7.706,8.873" />
      </g>
      <g
         transform="matrix(1.25,0,0,-1.25,289.61124,194.65692)"
         id="g5083">
        <path
           inkscape:connector-curvature="0"
           id="path5085"
           style="fill:#96a0a5;fill-opacity:1;fill-rule:nonzero;stroke:none"
           d="m 0,0 -0.355,0 c -0.566,0 -1.01,-0.475 -1.01,-1.08 l 0,-25.185 c 0,-0.606 0.444,-1.08 1.01,-1.08 l 0.355,0 c 0.565,0 1.01,0.474 1.01,1.08 l 0,25.185 C 1.01,-0.475 0.565,0 0,0" />
      </g>
      <g
         transform="matrix(1.25,0,0,-1.25,315.95886,203.77992)"
         id="g5087">
        <path
           inkscape:connector-curvature="0"
           id="path5089"
           style="fill:#96a0a5;fill-opacity:1;fill-rule:nonzero;stroke:none"
           d="m 0,0 -0.354,0 c -0.563,0 -1.01,-0.472 -1.01,-1.08 l 0,-11.441 c 0,-3.492 -1.498,-5.262 -4.445,-5.262 l -0.672,0 c -2.951,0 -4.446,1.77 -4.446,5.262 l 0,11.441 c 0,0.608 -0.443,1.08 -1.011,1.08 l -0.354,0 c -0.567,0 -1.01,-0.472 -1.01,-1.08 l 0,-11.441 c 0,-7.165 5.68,-7.525 6.821,-7.525 l 0.672,0 c 1.14,0 6.818,0.36 6.818,7.525 l 0,11.441 C 1.009,-0.472 0.564,0 0,0" />
      </g>
      <g
         transform="matrix(1.25,0,0,-1.25,335.17511,226.09554)"
         id="g5091">
        <path
           inkscape:connector-curvature="0"
           id="path5093"
           style="fill:#96a0a5;fill-opacity:1;fill-rule:nonzero;stroke:none"
           d="m 0,0 -2.692,0 c -2.245,0 -2.849,0.344 -2.849,2.746 l 0,12.841 5.541,0 c 0.635,0 1.08,0.402 1.08,0.972 l 0,0.321 c 0,0.575 -0.445,0.973 -1.08,0.973 l -5.541,0 0,3.563 c 0,0.585 -0.479,1.079 -1.047,1.079 l -0.283,0 c -0.595,0 -1.081,-0.486 -1.081,-1.079 l 0,-18.67 c 0,-3.463 1.572,-4.94 5.26,-4.94 0.934,0 2.216,0.027 2.736,0.11 0.476,0.052 1.107,0.21 1.107,0.97 l 0,0.248 C 1.151,-0.47 0.95,0 0,0" />
      </g>
      <g
         transform="matrix(1.25,0,0,-1.25,345.13249,203.77992)"
         id="g5095">
        <path
           inkscape:connector-curvature="0"
           id="path5097"
           style="fill:#96a0a5;fill-opacity:1;fill-rule:nonzero;stroke:none"
           d="m 0,0 -0.203,0 c -0.579,0 -1.085,-0.502 -1.085,-1.08 l 0,-17.886 c 0,-0.577 0.506,-1.08 1.085,-1.08 l 0.203,0 c 0.579,0 1.084,0.503 1.084,1.08 l 0,17.886 C 1.084,-0.502 0.579,0 0,0" />
      </g>
      <g
         transform="matrix(1.25,0,0,-1.25,345.13249,194.43417)"
         id="g5099">
        <path
           inkscape:connector-curvature="0"
           id="path5101"
           style="fill:#96a0a5;fill-opacity:1;fill-rule:nonzero;stroke:none"
           d="m 0,0 -0.203,0 c -0.579,0 -1.085,-0.505 -1.085,-1.079 l 0,-2.624 c 0,-0.595 0.485,-1.076 1.085,-1.076 l 0.203,0 c 0.6,0 1.084,0.481 1.084,1.076 l 0,2.624 C 1.084,-0.505 0.579,0 0,0" />
      </g>
      <g
         transform="matrix(1.25,0,0,-1.25,370.80136,214.64779)"
         id="g5103">
        <path
           inkscape:connector-curvature="0"
           id="path5105"
           style="fill:#96a0a5;fill-opacity:1;fill-rule:nonzero;stroke:none"
           d="m 0,0 0,-2.482 c 0,-4.494 -1.743,-6.676 -5.33,-6.676 -3.591,0 -5.335,2.182 -5.335,6.676 l 0,2.482 c 0,4.494 1.744,6.678 5.335,6.678 C -1.743,6.678 0,4.494 0,0 m -5.33,8.873 c -4.973,0 -7.71,-3.151 -7.71,-8.873 l 0,-2.482 c 0,-5.722 2.737,-8.87 7.71,-8.87 4.965,0 7.701,3.148 7.701,8.87 l 0,2.482 c 0,5.722 -2.736,8.873 -7.701,8.873" />
      </g>
      <g
         transform="matrix(1.25,0,0,-1.25,391.01749,203.55704)"
         id="g5107">
        <path
           inkscape:connector-curvature="0"
           id="path5109"
           style="fill:#96a0a5;fill-opacity:1;fill-rule:nonzero;stroke:none"
           d="m 0,0 -1.529,0 c -1.578,0 -6.39,0 -6.39,-6.926 l 0,-12.219 c 0,-0.595 0.449,-1.08 1.006,-1.08 l 0.358,0 c 0.553,0 1.004,0.485 1.004,1.08 l 0,12.219 c 0,4.268 1.905,4.626 4.022,4.626 L 0,-2.3 c 2.115,0 4.021,-0.358 4.021,-4.626 l 0,-12.219 c 0,-0.605 0.444,-1.08 1.007,-1.08 l 0.356,0 c 0.555,0 1.007,0.485 1.007,1.08 l 0,12.219 C 6.391,0 1.581,0 0,0" />
      </g>
      <g
         transform="matrix(1.25,0,0,-1.25,416.32136,215.30879)"
         id="g5111">
        <path
           inkscape:connector-curvature="0"
           id="path5113"
           style="fill:#96a0a5;fill-opacity:1;fill-rule:nonzero;stroke:none"
           d="m 0,0 -2.371,1.309 c -2.186,1.22 -3.23,2.027 -3.23,3.33 0,1.872 0.976,2.568 3.599,2.568 1.675,0 3.426,-0.211 4.471,-0.337 L 2.865,6.819 c 0.13,-0.013 0.24,-0.025 0.337,-0.025 0.579,0 0.869,0.338 0.869,0.998 l 0,0.281 c 0,0.85 -0.684,0.948 -1.101,1.007 L 2.718,9.111 c -1.155,0.135 -2.464,0.29 -4.86,0.29 -3.706,0 -5.83,-1.734 -5.83,-4.762 0,-2.714 1.951,-3.997 4.498,-5.389 l 2.268,-1.239 c 3.032,-1.659 3.544,-2.332 3.544,-3.504 0,-2.226 -1.187,-3.136 -4.092,-3.136 -1.167,0 -2.942,0.195 -5.142,0.563 -0.735,0.117 -1.251,-0.267 -1.251,-0.901 l 0,-0.389 c 0,-0.728 0.605,-0.859 1.108,-0.965 1.269,-0.248 3.569,-0.502 5.209,-0.502 4.277,0 6.539,1.842 6.539,5.33 C 4.709,-2.818 2.758,-1.528 0,0" />
      </g>
    </g>
  </g>
</svg>
