<svg id="Layer_1" data-name="Layer 1" xmlns="http://www.w3.org/2000/svg" xmlns:xlink="http://www.w3.org/1999/xlink" viewBox="0 0 400 400"><defs><style>.cls-1{fill:url(#linear-gradient);}</style><linearGradient id="linear-gradient" x1="8.55" y1="-877.02" x2="-413.46" y2="-633.38" gradientTransform="translate(955.21 -2.46) rotate(-90)" gradientUnits="userSpaceOnUse"><stop offset="0" stop-color="#29235c"/><stop offset="0.68" stop-color="#009086"/><stop offset="1" stop-color="#4cb48c"/></linearGradient></defs><path class="cls-1" d="M129.71,97.48c-9.48-9.48-23.55-9.58-33-.27-9.61,9.56-9.82,24-.45,33.29a23.49,23.49,0,1,0,33.43-33ZM133.58,274c-9.13-9.24-23.6-9.08-33,.39a23.24,23.24,0,0,0-.31,33.11c9,9.05,24.47,9.18,33.36.34C143.08,298.43,143,283.62,133.58,274ZM306.74,94.53c-9.47-9.48-24.26-9.69-33.39-.42-12,12.16-8,36,12.21,39.58a23.63,23.63,0,0,0,21.87-7.25C316,117,315.82,103.66,306.74,94.53Zm0,0c-9.47-9.48-24.26-9.69-33.39-.42-12,12.16-8,36,12.21,39.58a23.63,23.63,0,0,0,21.87-7.25C316,117,315.82,103.66,306.74,94.53ZM133.58,274c-9.13-9.24-23.6-9.08-33,.39a23.24,23.24,0,0,0-.31,33.11c9,9.05,24.47,9.18,33.36.34C143.08,298.43,143,283.62,133.58,274ZM129.71,97.48c-9.48-9.48-23.55-9.58-33-.27-9.61,9.56-9.82,24-.45,33.29a23.49,23.49,0,1,0,33.43-33Zm0,0c-9.48-9.48-23.55-9.58-33-.27-9.61,9.56-9.82,24-.45,33.29a23.49,23.49,0,1,0,33.43-33ZM133.58,274c-9.13-9.24-23.6-9.08-33,.39a23.24,23.24,0,0,0-.31,33.11c9,9.05,24.47,9.18,33.36.34C143.08,298.43,143,283.62,133.58,274Zm155.51-7.47a24.07,24.07,0,1,0,24.1,24.08A24.06,24.06,0,0,0,289.09,266.52Zm17.65-172c-9.47-9.48-24.26-9.69-33.39-.42-12,12.16-8,36,12.21,39.58a23.63,23.63,0,0,0,21.87-7.25C316,117,315.82,103.66,306.74,94.53Zm0,0c-9.47-9.48-24.26-9.69-33.39-.42-12,12.16-8,36,12.21,39.58a23.63,23.63,0,0,0,21.87-7.25C316,117,315.82,103.66,306.74,94.53ZM100.58,274.38a23.24,23.24,0,0,0-.31,33.11c9,9.05,24.47,9.18,33.36.34,9.45-9.4,9.4-24.21,0-33.84C124.45,264.75,110,264.91,100.58,274.38Zm29.2-143.69a23.5,23.5,0,0,0-.07-33.21c-9.48-9.48-23.55-9.58-33-.27-9.61,9.56-9.82,24-.45,33.29A23.64,23.64,0,0,0,129.78,130.69ZM289.09,266.52a24.07,24.07,0,1,0,24.1,24.08A24.06,24.06,0,0,0,289.09,266.52ZM340.93,7.94H59.07A51.12,51.12,0,0,0,8,59.07V340.91a51.15,51.15,0,0,0,51.11,51.15H340.93A51.15,51.15,0,0,0,392,340.91V59.07A51.12,51.12,0,0,0,340.93,7.94ZM289.09,341.81a51.22,51.22,0,1,1,51.23-51.21A51.24,51.24,0,0,1,289.09,341.81Zm23.55-184.58c-15.69,8.52-31.75,10.12-48,1.49a37.73,37.73,0,0,1-12.48-10.54C241,133.79,226.44,126.09,207.94,126c-4,0-7.86.08-11.79.26a61.52,61.52,0,0,0-43,20.07l-8.52,9.29a62.11,62.11,0,0,0-16.28,41.5v.24c-.05,7.06.06,14.09.11,21.18.13,10.33,4.62,18.45,13,24.26,8.55,5.92,16.64,12.16,21.53,21.74A53.51,53.51,0,0,1,156.46,323c-13.38,15.85-30.76,21.56-50.7,17.52s-33.82-15.93-40.08-35.73c-3.75-11.81-2.1-23.28,3.07-34.3a72.68,72.68,0,0,1,15.32-21.68c11.36-11,16.33-24.75,17.58-40a66.25,66.25,0,0,0-5.37-33c-3.34-7.38-8.23-13.38-14.25-18.92C69.31,145.24,59.12,131.7,59.7,113.3c.69-20.79,10.2-37,28.94-46.54,18.29-9.34,36.23-7.3,53.09,4.23,5,3.47,9.05,8.28,13.62,12.36C169.79,96.26,186.94,100,205.57,99.2c11.87-.55,23-3.16,32.63-10.72,4.09-3.19,7.17-7.2,10.35-11.15,13.36-16.57,30.9-22,51.18-17.79,22.33,4.57,37.09,21,40.09,42.88C342.85,125.06,332.39,146.46,312.64,157.23ZM273.35,94.11c-12,12.16-8,36,12.21,39.58a23.63,23.63,0,0,0,21.87-7.25c8.6-9.48,8.39-22.78-.69-31.91C297.27,85.05,282.48,84.84,273.35,94.11Zm15.74,172.41a24.07,24.07,0,1,0,24.1,24.08A24.06,24.06,0,0,0,289.09,266.52Zm-188.51,7.86a23.24,23.24,0,0,0-.31,33.11c9,9.05,24.47,9.18,33.36.34,9.45-9.4,9.4-24.21,0-33.84C124.45,264.75,110,264.91,100.58,274.38ZM96.73,97.21c-9.61,9.56-9.82,24-.45,33.29a23.49,23.49,0,1,0,33.43-33C120.23,88,106.16,87.9,96.73,97.21ZM289.09,266.52a24.07,24.07,0,1,0,24.1,24.08A24.06,24.06,0,0,0,289.09,266.52Zm-159.38-169c-9.48-9.48-23.55-9.58-33-.27-9.61,9.56-9.82,24-.45,33.29a23.49,23.49,0,1,0,33.43-33ZM133.58,274c-9.13-9.24-23.6-9.08-33,.39a23.24,23.24,0,0,0-.31,33.11c9,9.05,24.47,9.18,33.36.34C143.08,298.43,143,283.62,133.58,274ZM306.74,94.53c-9.47-9.48-24.26-9.69-33.39-.42-12,12.16-8,36,12.21,39.58a23.63,23.63,0,0,0,21.87-7.25C316,117,315.82,103.66,306.74,94.53Zm0,0c-9.47-9.48-24.26-9.69-33.39-.42-12,12.16-8,36,12.21,39.58a23.63,23.63,0,0,0,21.87-7.25C316,117,315.82,103.66,306.74,94.53Zm-17.65,172a24.07,24.07,0,1,0,24.1,24.08A24.06,24.06,0,0,0,289.09,266.52ZM133.58,274c-9.13-9.24-23.6-9.08-33,.39a23.24,23.24,0,0,0-.31,33.11c9,9.05,24.47,9.18,33.36.34C143.08,298.43,143,283.62,133.58,274ZM129.71,97.48c-9.48-9.48-23.55-9.58-33-.27-9.61,9.56-9.82,24-.45,33.29a23.49,23.49,0,1,0,33.43-33Z"/></svg>