<?xml version="1.0" encoding="UTF-8" standalone="no"?>
<!-- Generator: Adobe Illustrator 18.0.0, SVG Export Plug-In . SVG Version: 6.00 Build 0)  -->

<svg
   xmlns:dc="http://purl.org/dc/elements/1.1/"
   xmlns:cc="http://creativecommons.org/ns#"
   xmlns:rdf="http://www.w3.org/1999/02/22-rdf-syntax-ns#"
   xmlns:svg="http://www.w3.org/2000/svg"
   xmlns="http://www.w3.org/2000/svg"
   xmlns:sodipodi="http://sodipodi.sourceforge.net/DTD/sodipodi-0.dtd"
   xmlns:inkscape="http://www.inkscape.org/namespaces/inkscape"
   version="1.1"
   id="Layer_1"
   x="0px"
   y="0px"
   viewBox="0 0 38.000001 38"
   enable-background="new 0 0 720 576"
   xml:space="preserve"
   inkscape:version="0.91 r13725"
   sodipodi:docname="logo.svg"
   width="38"
   height="38"><metadata
     id="metadata9"><rdf:RDF><cc:Work
         rdf:about=""><dc:format>image/svg+xml</dc:format><dc:type
           rdf:resource="http://purl.org/dc/dcmitype/StillImage" /><dc:title></dc:title></cc:Work></rdf:RDF></metadata><defs
     id="defs7" /><sodipodi:namedview
     pagecolor="#ffffff"
     bordercolor="#666666"
     borderopacity="1"
     objecttolerance="10"
     gridtolerance="10"
     guidetolerance="10"
     inkscape:pageopacity="0"
     inkscape:pageshadow="2"
     inkscape:window-width="1278"
     inkscape:window-height="634"
     id="namedview5"
     showgrid="false"
     fit-margin-top="0"
     fit-margin-left="0"
     fit-margin-right="0"
     fit-margin-bottom="0"
     inkscape:zoom="4.6354778"
     inkscape:cx="48.543246"
     inkscape:cy="48.15077"
     inkscape:window-x="0"
     inkscape:window-y="0"
     inkscape:window-maximized="0"
     inkscape:current-layer="Layer_1" /><path
     d="m 21.034404,17.970616 c -1.353789,0.14402 -3.93175,0.302442 -4.954293,-0.460864 0,0 0,0 0,0 -0.662493,-0.316845 -1.28178,-0.820915 -1.872263,-1.569821 -1.541015,-1.973076 -4.810272,-1.641829 -6.5673175,0.21603 -1.829056,1.944273 -1.7282419,4.911088 0.2304322,6.725742 1.8866633,1.742643 5.0407043,1.814653 6.5673183,-0.244835 0.619287,-0.835316 1.281779,-1.396995 2.016281,-1.728242 0.0288,-0.0144 0.07201,-0.0288 0.115216,-0.0576 0.0144,-0.0144 0.0288,-0.0144 0.05761,-0.0288 0.07201,-0.0288 0.158422,-0.05761 0.259236,-0.08641 0,0 0,0 0,0 0.129618,-0.0432 0.259236,-0.07201 0.388854,-0.100814 1.958675,-0.489669 3.888545,-0.201628 4.623048,-0.07201 0.115216,0.0144 0.21603,0.0288 0.316844,0.07201 0.604884,0.201628 0.792111,0.734502 0.259236,1.267377 -1.829056,1.843458 -3.096433,4.407016 -6.538515,3.960553 -2.721981,-0.345648 -4.795871,2.131498 -4.680655,4.867881 0.100814,2.606765 2.448343,4.767067 4.983097,4.594242 2.649971,-0.187226 4.78147,-2.563558 4.378213,-5.256735 -0.259235,-1.742644 0.259237,-2.894804 1.411398,-4.133378 1.396995,-1.512211 2.822794,-2.246714 4.954293,-2.189105 3.614905,0.08641 5.832815,-3.528494 4.335006,-6.711339 C 30.381308,15.075814 28.653066,14.226095 25.916683,14.39892 23.093889,14.571743 20.155878,11.576125 20.17028,8.7677321 20.184681,7.6299734 19.939848,6.3193902 19.363767,5.3688573 18.139595,3.323773 15.532831,2.7620946 13.415734,3.8422451 c -2.07389,1.0369434 -3.096433,3.413276 -2.419538,5.573578 0.734503,2.3907339 3.038825,3.8741419 5.487167,3.3124629 1.324986,-0.302442 2.232314,-0.0288 3.067631,0.921729 0.403256,0.446463 0.907327,0.806512 1.29618,1.267377 0.619287,0.734503 1.814655,1.699439 1.656232,2.232313 -0.115216,0.388855 -0.331246,0.604885 -0.604884,0.720101 l 0,0 0,0 c -0.259234,0.08641 -0.547274,0.100815 -0.864118,0.100815 z m -9.966194,3.614906 c -1.195368,0.0288 -2.174704,-0.92173 -2.203509,-2.117097 -0.0288,-1.195367 0.921729,-2.174704 2.117096,-2.203508 1.195368,-0.0288 2.174704,0.921729 2.203508,2.117097 0.0288,1.195366 -0.936131,2.174704 -2.117095,2.203508 z m 4.810272,11.23357 c -1.195367,0.0288 -2.174704,-0.921729 -2.203508,-2.117096 -0.0288,-1.195367 0.921729,-2.174704 2.117096,-2.203508 1.195367,-0.0288 2.174704,0.921729 2.203508,2.117096 0.0288,1.195367 -0.921729,2.189106 -2.117096,2.203508 z M 26.93923,16.948073 c 1.195367,-0.0288 2.174704,0.921729 2.203508,2.117096 0.0288,1.195367 -0.921729,2.174704 -2.117097,2.203508 -1.195366,0.0288 -2.174704,-0.921729 -2.203507,-2.117096 -0.0288,-1.195367 0.921729,-2.174704 2.117096,-2.203508 z M 15.432019,10.193527 c -1.195366,0.02881 -2.174704,-0.9217279 -2.203507,-2.1170953 -0.0288,-1.1953672 0.921729,-2.1747041 2.117095,-2.2035081 1.195368,-0.028804 2.174705,0.9217289 2.203509,2.1170959 0.0288,1.1953676 -0.921729,2.1891065 -2.117097,2.2035075 z"
     id="path3"
     inkscape:connector-curvature="0"
     style="fill:#00aeef" /></svg>